<svg id="visual" viewBox="0 0 2560 600" width="2560" height="600" xmlns="http://www.w3.org/2000/svg" xmlns:xlink="http://www.w3.org/1999/xlink" version="1.1"><g stroke-width="1" stroke-linejoin="bevel"><path d="M1311.5 231L1325.5 112L1249.5 219Z" fill="#19435d" stroke="#19435d"></path><path d="M1249.5 219L1212.5 337L1311.5 231Z" fill="#081a28" stroke="#081a28"></path><path d="M1531.4 192L1432.5 0L1325.5 112Z" fill="#15384f" stroke="#15384f"></path><path d="M1432.5 0L1130.5 0L1325.5 112Z" fill="#0c2435" stroke="#0c2435"></path><path d="M1325.5 112L1130.5 0L1249.5 219Z" fill="#081a28" stroke="#081a28"></path><path d="M1249.5 219L1053.6 192L1212.5 337Z" fill="#246688" stroke="#246688"></path><path d="M1130.5 0L1053.6 192L1249.5 219Z" fill="#19435d" stroke="#19435d"></path><path d="M1562.4 285L1531.4 192L1311.5 231Z" fill="#246688" stroke="#246688"></path><path d="M1311.5 231L1531.4 192L1325.5 112Z" fill="#1d4e6b" stroke="#1d4e6b"></path><path d="M1531.4 192L1501.4 0L1432.5 0Z" fill="#1d4e6b" stroke="#1d4e6b"></path><path d="M1007.6 470L1244.5 455L1212.5 337Z" fill="#0c2435" stroke="#0c2435"></path><path d="M1212.5 337L1406.5 474L1311.5 231Z" fill="#00101c" stroke="#00101c"></path><path d="M1406.5 474L1562.4 285L1311.5 231Z" fill="#00101c" stroke="#00101c"></path><path d="M1531.4 192L1767.3 0L1501.4 0Z" fill="#1d4e6b" stroke="#1d4e6b"></path><path d="M1244.5 455L1406.5 474L1212.5 337Z" fill="#277297" stroke="#277297"></path><path d="M1130.5 0L997.6 0L1053.6 192Z" fill="#112e42" stroke="#112e42"></path><path d="M843.7 187L967.6 337L1053.6 192Z" fill="#277297" stroke="#277297"></path><path d="M1053.6 192L967.6 337L1212.5 337Z" fill="#081a28" stroke="#081a28"></path><path d="M967.6 337L1007.6 470L1212.5 337Z" fill="#246688" stroke="#246688"></path><path d="M1244.5 455L1380.5 600L1406.5 474Z" fill="#277297" stroke="#277297"></path><path d="M1406.5 474L1582.4 486L1562.4 285Z" fill="#15384f" stroke="#15384f"></path><path d="M1550.4 600L1582.4 486L1406.5 474Z" fill="#246688" stroke="#246688"></path><path d="M1007.6 470L1233.5 600L1244.5 455Z" fill="#00101c" stroke="#00101c"></path><path d="M1233.5 600L1380.5 600L1244.5 455Z" fill="#00101c" stroke="#00101c"></path><path d="M997.6 0L843.7 187L1053.6 192Z" fill="#19435d" stroke="#19435d"></path><path d="M967.6 337L851.7 428L1007.6 470Z" fill="#297ea6" stroke="#297ea6"></path><path d="M1582.4 486L1746.3 239L1562.4 285Z" fill="#246688" stroke="#246688"></path><path d="M1562.4 285L1746.3 239L1531.4 192Z" fill="#277297" stroke="#277297"></path><path d="M1958.2 155L1782.3 198L1951.2 350Z" fill="#15384f" stroke="#15384f"></path><path d="M1746.3 239L1782.3 198L1531.4 192Z" fill="#19435d" stroke="#19435d"></path><path d="M1380.5 600L1550.4 600L1406.5 474Z" fill="#00101c" stroke="#00101c"></path><path d="M1582.4 486L1785.3 515L1746.3 239Z" fill="#00101c" stroke="#00101c"></path><path d="M1782.3 198L1767.3 0L1531.4 192Z" fill="#112e42" stroke="#112e42"></path><path d="M843.7 187L851.7 428L967.6 337Z" fill="#277297" stroke="#277297"></path><path d="M1007.6 470L921.6 600L1233.5 600Z" fill="#0c2435" stroke="#0c2435"></path><path d="M997.6 0L780.7 0L843.7 187Z" fill="#081a28" stroke="#081a28"></path><path d="M843.7 187L744.7 236L851.7 428Z" fill="#205a7a" stroke="#205a7a"></path><path d="M780.7 0L744.7 236L843.7 187Z" fill="#246688" stroke="#246688"></path><path d="M851.7 428L921.6 600L1007.6 470Z" fill="#205a7a" stroke="#205a7a"></path><path d="M719.7 600L921.6 600L851.7 428Z" fill="#1d4e6b" stroke="#1d4e6b"></path><path d="M1781.3 600L1785.3 515L1582.4 486Z" fill="#297ea6" stroke="#297ea6"></path><path d="M780.7 0L628.8 155L744.7 236Z" fill="#112e42" stroke="#112e42"></path><path d="M1550.4 600L1781.3 600L1582.4 486Z" fill="#15384f" stroke="#15384f"></path><path d="M660.8 0L628.8 155L780.7 0Z" fill="#112e42" stroke="#112e42"></path><path d="M744.7 236L637.8 469L851.7 428Z" fill="#19435d" stroke="#19435d"></path><path d="M1951.2 350L1782.3 198L1746.3 239Z" fill="#246688" stroke="#246688"></path><path d="M1782.3 198L1958.2 155L1767.3 0Z" fill="#15384f" stroke="#15384f"></path><path d="M1951.2 350L1746.3 239L1785.3 515Z" fill="#277297" stroke="#277297"></path><path d="M2009.2 403L1951.2 350L1785.3 515Z" fill="#00101c" stroke="#00101c"></path><path d="M393.8 288L591.8 288L628.8 155Z" fill="#205a7a" stroke="#205a7a"></path><path d="M628.8 155L591.8 288L744.7 236Z" fill="#1d4e6b" stroke="#1d4e6b"></path><path d="M637.8 469L719.7 600L851.7 428Z" fill="#297ea6" stroke="#297ea6"></path><path d="M591.8 288L637.8 469L744.7 236Z" fill="#0c2435" stroke="#0c2435"></path><path d="M2209.2 0L2021.2 0L2232.2 158Z" fill="#112e42" stroke="#112e42"></path><path d="M1958.2 155L2021.2 0L1767.3 0Z" fill="#297ea6" stroke="#297ea6"></path><path d="M1941.2 600L2009.2 403L1785.3 515Z" fill="#297ea6" stroke="#297ea6"></path><path d="M1951.2 350L2214.2 290L1958.2 155Z" fill="#112e42" stroke="#112e42"></path><path d="M1781.3 600L1941.2 600L1785.3 515Z" fill="#19435d" stroke="#19435d"></path><path d="M447.8 600L619.8 600L637.8 469Z" fill="#0c2435" stroke="#0c2435"></path><path d="M637.8 469L619.8 600L719.7 600Z" fill="#1d4e6b" stroke="#1d4e6b"></path><path d="M1941.2 600L2123.2 441L2009.2 403Z" fill="#0c2435" stroke="#0c2435"></path><path d="M2009.2 403L2214.2 290L1951.2 350Z" fill="#112e42" stroke="#112e42"></path><path d="M660.8 0L426.8 0L628.8 155Z" fill="#112e42" stroke="#112e42"></path><path d="M591.8 288L408.8 391L637.8 469Z" fill="#0c2435" stroke="#0c2435"></path><path d="M335.8 164L393.8 288L628.8 155Z" fill="#081a28" stroke="#081a28"></path><path d="M393.8 288L408.8 391L591.8 288Z" fill="#15384f" stroke="#15384f"></path><path d="M2123.2 441L2214.2 290L2009.2 403Z" fill="#1d4e6b" stroke="#1d4e6b"></path><path d="M2232.2 158L2021.2 0L1958.2 155Z" fill="#246688" stroke="#246688"></path><path d="M2214.2 290L2232.2 158L1958.2 155Z" fill="#246688" stroke="#246688"></path><path d="M408.8 391L447.8 600L637.8 469Z" fill="#112e42" stroke="#112e42"></path><path d="M426.8 0L335.8 164L628.8 155Z" fill="#246688" stroke="#246688"></path><path d="M393.8 288L223.9 254L408.8 391Z" fill="#246688" stroke="#246688"></path><path d="M408.8 391L221.9 600L447.8 600Z" fill="#19435d" stroke="#19435d"></path><path d="M1941.2 600L2187.2 600L2123.2 441Z" fill="#1d4e6b" stroke="#1d4e6b"></path><path d="M2385.1 422L2387.1 347L2214.2 290Z" fill="#19435d" stroke="#19435d"></path><path d="M2407.1 77L2322.1 0L2232.2 158Z" fill="#205a7a" stroke="#205a7a"></path><path d="M426.8 0L259.9 113L335.8 164Z" fill="#1d4e6b" stroke="#1d4e6b"></path><path d="M335.8 164L223.9 254L393.8 288Z" fill="#00101c" stroke="#00101c"></path><path d="M2387.1 347L2232.2 158L2214.2 290Z" fill="#19435d" stroke="#19435d"></path><path d="M2232.2 158L2322.1 0L2209.2 0Z" fill="#277297" stroke="#277297"></path><path d="M259.9 113L223.9 254L335.8 164Z" fill="#205a7a" stroke="#205a7a"></path><path d="M2385.1 422L2214.2 290L2123.2 441Z" fill="#15384f" stroke="#15384f"></path><path d="M2387.1 347L2407.1 77L2232.2 158Z" fill="#246688" stroke="#246688"></path><path d="M2187.2 600L2385.1 422L2123.2 441Z" fill="#205a7a" stroke="#205a7a"></path><path d="M2387.1 347L2560 155L2407.1 77Z" fill="#15384f" stroke="#15384f"></path><path d="M223.9 254L201.9 459L408.8 391Z" fill="#112e42" stroke="#112e42"></path><path d="M426.8 0L162.9 0L259.9 113Z" fill="#297ea6" stroke="#297ea6"></path><path d="M259.9 113L0 113L223.9 254Z" fill="#0c2435" stroke="#0c2435"></path><path d="M223.9 254L0 230L201.9 459Z" fill="#112e42" stroke="#112e42"></path><path d="M201.9 459L221.9 600L408.8 391Z" fill="#205a7a" stroke="#205a7a"></path><path d="M2187.2 600L2401.1 600L2385.1 422Z" fill="#081a28" stroke="#081a28"></path><path d="M2560 374L2560 155L2387.1 347Z" fill="#081a28" stroke="#081a28"></path><path d="M2560 374L2387.1 347L2385.1 422Z" fill="#0c2435" stroke="#0c2435"></path><path d="M2407.1 77L2560 0L2322.1 0Z" fill="#277297" stroke="#277297"></path><path d="M2560 155L2560 0L2407.1 77Z" fill="#277297" stroke="#277297"></path><path d="M2560 404L2560 374L2385.1 422Z" fill="#297ea6" stroke="#297ea6"></path><path d="M2560 600L2560 404L2385.1 422Z" fill="#246688" stroke="#246688"></path><path d="M162.9 0L0 113L259.9 113Z" fill="#0c2435" stroke="#0c2435"></path><path d="M201.9 459L0 494L221.9 600Z" fill="#15384f" stroke="#15384f"></path><path d="M0 113L0 230L223.9 254Z" fill="#246688" stroke="#246688"></path><path d="M162.9 0L0 0L0 113Z" fill="#081a28" stroke="#081a28"></path><path d="M0 230L0 494L201.9 459Z" fill="#112e42" stroke="#112e42"></path><path d="M2401.1 600L2560 600L2385.1 422Z" fill="#277297" stroke="#277297"></path><path d="M0 494L0 600L221.9 600Z" fill="#297ea6" stroke="#297ea6"></path></g></svg>